<svg width="30" height="30" viewBox="0 0 30 30" fill="none" xmlns="http://www.w3.org/2000/svg">
    <g clip-path="url(#clip0_1_4888)">
        <path d="M15 0C12.2662 0 9.75 0.66625 7.45 2C5.18215 3.30119 3.30119 5.18215 2 7.45C0.66625 9.75 0 12.2662 0 15C0 17.7337 0.66625 20.25 2 22.55C3.30119 24.8178 5.18215 26.6988 7.45 28C9.75 29.3337 12.2662 30 15 30C17.7337 30 20.25 29.3337 22.55 28C24.8178 26.6988 26.6988 24.8178 28 22.55C29.3337 20.25 30 17.7337 30 15C30 12.2662 29.3337 9.75 28 7.45C26.6988 5.18215 24.8178 3.30119 22.55 2C20.25 0.66625 17.7337 0 15 0ZM18.9 15H16.4V24H13V15H10.8V11.9H13V10C13 8.6 13.2338 7.6 13.7 7C14.2338 6.26625 15.2 5.9 16.6 5.9H19.1V9H17.6C17.0662 9 16.7337 9.08375 16.6 9.25C16.4662 9.41625 16.4 9.73375 16.4 10.2V11.7H19.1L18.9 15Z"
              fill="#7E7E7E"/>
    </g>
    <defs>
        <clipPath id="clip0_1_4888">
            <rect width="30" height="30" fill="white"/>
        </clipPath>
    </defs>
</svg>
