<svg width="30" height="30" viewBox="0 0 30 30" fill="none" xmlns="http://www.w3.org/2000/svg">
    <g clip-path="url(#clip0_1_4885)">
        <path d="M15 0C12.2662 0 9.75 0.66625 7.45 2C5.18215 3.30119 3.30119 5.18215 2 7.45C0.66625 9.75 0 12.2662 0 15C0 17.7337 0.66625 20.25 2 22.55C3.30119 24.8178 5.18215 26.6988 7.45 28C9.75 29.3337 12.2662 30 15 30C17.7337 30 20.25 29.3337 22.55 28C24.8178 26.6988 26.6988 24.8178 28 22.55C29.3337 20.25 30 17.7337 30 15C30 12.2662 29.3337 9.75 28 7.45C26.6988 5.18215 24.8178 3.30119 22.55 2C20.25 0.66625 17.7337 0 15 0ZM22.5 11.6V12.1C22.5 13.8338 22.0837 15.5 21.25 17.1C20.4278 18.6878 19.2038 20.0325 17.7 21C16.0338 22.0662 14.1663 22.6 12.1 22.6C10.0871 22.6151 8.11101 22.0604 6.4 21H7.3C9.03375 21 10.5663 20.4663 11.9 19.4C11.1 19.4 10.3837 19.15 9.75 18.65C9.11625 18.15 8.66625 17.5 8.4 16.7L9.1 16.9C9.56625 16.9 9.9 16.8337 10.1 16.7C9.24906 16.5759 8.47886 16.1281 7.95 15.45C7.39832 14.7915 7.09724 13.9591 7.1 13.1C7.63375 13.4337 8.2 13.6 8.8 13.6C7.66625 12.9338 7.1 11.9 7.1 10.5C7.1 9.83375 7.26625 9.2 7.6 8.6C8.6 9.8 9.75 10.7337 11.05 11.4C12.3696 12.0718 13.8201 12.4472 15.3 12.5C15.1662 12.3 15.1 12 15.1 11.6C15.1 10.6 15.4663 9.73375 16.2 9C16.9338 8.26625 17.8 7.9 18.8 7.9C19.8 7.9 20.7338 8.26625 21.6 9C22.2 8.86625 23 8.56625 24 8.1C23.7338 9.03375 23.2 9.7 22.4 10.1H22.5C23.4338 9.9 24.1 9.7 24.5 9.5C23.8337 10.3663 23.1663 11.0662 22.5 11.6Z" fill="#7E7E7E"/>
    </g>
    <defs>
        <clipPath id="clip0_1_4885">
            <rect width="30" height="30" fill="white"/>
        </clipPath>
    </defs>
</svg>