<svg width="30" height="30" viewBox="0 0 30 30" fill="none" xmlns="http://www.w3.org/2000/svg">
    <g clip-path="url(#clip0_1_4891)">
        <path d="M14.1 22C14.0444 22.1202 13.9582 22.2237 13.85 22.3C13.7623 22.3627 13.6578 22.3975 13.55 22.4C13.45 22.4 13.3837 22.3663 13.35 22.3C13.3114 22.2049 13.2944 22.1025 13.3 22V18.3H12.4V22.4C12.3902 22.6263 12.442 22.8509 12.55 23.05C12.65 23.2163 12.8 23.3 13 23.3C13.2 23.3 13.3837 23.2337 13.55 23.1C13.7163 22.9662 13.9 22.8 14.1 22.6V23.2H15V18.3H14.1V22ZM8.7 17.5V16.5H12V17.5H10.9V23.2H9.8V17.5H8.7ZM14.9 11.6C14.7662 11.6 14.65 11.55 14.55 11.45C14.5024 11.405 14.4646 11.3507 14.4388 11.2905C14.413 11.2303 14.3998 11.1655 14.4 11.1V8.1C14.4 8.03375 14.4338 7.96625 14.5 7.9C14.5663 7.83375 14.6838 7.8 14.85 7.8C15.0163 7.8 15.15 7.83375 15.25 7.9C15.299 7.93259 15.3386 7.97742 15.3649 8.03005C15.3912 8.08267 15.4033 8.14126 15.4 8.2V11.1C15.4 11.2338 15.35 11.35 15.25 11.45C15.205 11.4976 15.1507 11.5354 15.0905 11.5612C15.0303 11.587 14.9655 11.6002 14.9 11.6ZM17.4 22C17.4 21.2 17.4338 20.3663 17.5 19.5C17.5 19.3663 17.45 19.25 17.35 19.15C17.25 19.05 17.15 19 17.05 19H16.9L16.6 19.2V22.2L16.9 22.4L17.1 22.5C17.2338 22.5 17.3162 22.4662 17.35 22.4C17.3838 22.3337 17.4 22.2 17.4 22ZM17.5 18.2C17.7663 18.2 17.9838 18.3 18.15 18.5C18.3162 18.7 18.4 19 18.4 19.4V22.2C18.4 22.5338 18.3337 22.8 18.2 23C18.145 23.093 18.0627 23.1668 17.9643 23.2115C17.866 23.2562 17.7562 23.2697 17.65 23.25C17.4448 23.2238 17.2434 23.1735 17.05 23.1C16.8997 23.0476 16.7748 22.9405 16.7 22.8V23.2H15.7V16.5H16.7V18.7C16.8337 18.5662 16.9662 18.45 17.1 18.35C17.2132 18.2574 17.3538 18.2046 17.5 18.2ZM22.4 24.6C22.7337 24.3337 22.9338 23.4663 23 22C23.0662 21.2663 23.1337 20.5662 23.2 19.9C23.2 19.3 23.1337 18.6337 23 17.9C22.8662 16.4338 22.65 15.5337 22.35 15.2C22.05 14.8663 20.7663 14.6338 18.5 14.5L15.2 14.4L11.8 14.5C9.53375 14.6338 8.25 14.8663 7.95 15.2C7.65 15.5337 7.43375 16.4338 7.3 17.9C7.23344 18.5646 7.20006 19.2321 7.2 19.9C7.2 20.5662 7.23375 21.2663 7.3 22C7.43375 23.4663 7.65 24.35 7.95 24.65C8.25 24.95 9.53375 25.2 11.8 25.4L15.2 25.5L18.5 25.4C20.7663 25.2 22.0662 24.9662 22.4 24.7V24.6ZM10.5 5H9.3L10.7 9.5V12.3H11.9V9.3L13.3 5H12.1L11.4 7.9H11.3L10.5 5ZM13.4 8.2V11C13.4 11.4663 13.5337 11.8338 13.8 12.1C14.0662 12.3663 14.4338 12.5 14.9 12.5C15.3663 12.5 15.7338 12.3663 16 12.1C16.2663 11.8338 16.4 11.4663 16.4 11V8.2C16.4 7.8 16.2663 7.46625 16 7.2C15.7338 6.93375 15.3663 6.8 14.9 6.8C14.4338 6.8 14.0662 6.93375 13.8 7.2C13.5337 7.46625 13.4 7.8 13.4 8.2ZM17.3 7V11.5C17.2902 11.7263 17.342 11.9509 17.45 12.15C17.55 12.3163 17.7162 12.4 17.95 12.4C18.1838 12.4 18.4 12.35 18.6 12.25C18.8 12.15 19 12 19.2 11.8V12.4H20.3V7H19.2V11C19.1361 11.1306 19.0306 11.2361 18.9 11.3C18.7925 11.3596 18.6728 11.3938 18.55 11.4C18.45 11.4 18.3838 11.3837 18.35 11.35C18.3162 11.3162 18.3 11.2338 18.3 11.1V6.9H17.3V7ZM15 0C17.7337 0 20.25 0.66625 22.55 2C24.8178 3.30119 26.6988 5.18215 28 7.45C29.3337 9.75 30 12.2662 30 15C30 17.7337 29.3337 20.25 28 22.55C26.6988 24.8178 24.8178 26.6988 22.55 28C20.25 29.3337 17.7337 30 15 30C12.2662 30 9.75 29.3337 7.45 28C5.18215 26.6988 3.30119 24.8178 2 22.55C0.66625 20.25 0 17.7337 0 15C0 12.2662 0.66625 9.75 2 7.45C3.30119 5.18215 5.18215 3.30119 7.45 2C9.75 0.66625 12.2662 0 15 0ZM20.7 20.1L20.6 19.6C20.6 19.4 20.5662 19.25 20.5 19.15C20.4674 19.101 20.4226 19.0614 20.37 19.0351C20.3173 19.0088 20.2587 18.9967 20.2 19C20.1413 18.9967 20.0827 19.0088 20.03 19.0351C19.9774 19.0614 19.9326 19.101 19.9 19.15C19.8337 19.25 19.8 19.4 19.8 19.6V20.1H20.7ZM20.3 18.2C20.7 18.2 21.0163 18.3162 21.25 18.55C21.4837 18.7838 21.6 19.1338 21.6 19.6V20.8H19.8V21.8C19.8 22 19.8337 22.15 19.9 22.25C19.9662 22.35 20.0838 22.4 20.25 22.4C20.4163 22.4 20.5337 22.35 20.6 22.25C20.6663 22.15 20.7 21.9663 20.7 21.7V21.5H21.6V21.8C21.6 22.2663 21.4837 22.6337 21.25 22.9C21.0163 23.1663 20.6838 23.3 20.25 23.3C19.8163 23.3 19.4837 23.1663 19.25 22.9C19.0162 22.6337 18.9 22.2663 18.9 21.8V19.6C18.9 19.2 19.0337 18.8663 19.3 18.6C19.5662 18.3337 19.9 18.2 20.3 18.2Z" fill="#7E7E7E"/>
    </g>
    <defs>
        <clipPath id="clip0_1_4891">
            <rect width="30" height="30" fill="white"/>
        </clipPath>
    </defs>
</svg>
